<svg version="1.1" xmlns="http://www.w3.org/2000/svg" xmlns:xlink="http://www.w3.org/1999/xlink" width="400" height="400" viewBox="0 0 400 400"><defs></defs><g><rect fill="rgb(255,255,255)" stroke="none" x="0" y="0" width="400" height="400" transform="matrix(1 0 0 1 0 0)" fill-opacity="1"></rect><path fill="rgb(0,0,0)" stroke="none" paint-order="stroke fill markers" d=" M 200 200 L 0 71.42857142857144 L 85.71428571428571 200 Z" fill-opacity="1"></path><path fill="rgb(0,0,0)" stroke="none" paint-order="stroke fill markers" d=" M 200 200 L 400 71.42857142857144 L 314.2857142857143 200 Z" fill-opacity="1"></path><path fill="rgb(0,0,0)" stroke="none" paint-order="stroke fill markers" d=" M 28.571428571428555 200 C 28.571428571428555 105.32261432 105.32261432 28.571428571428555 200 28.571428571428555 C 294.67738568 28.571428571428555 371.42857142857144 105.32261432 371.42857142857144 200 C 371.42857142857144 294.67738568 294.67738568 371.42857142857144 200 371.42857142857144 C 105.32261432 371.42857142857144 28.571428571428555 294.67738568 28.571428571428555 200" fill-opacity="1"></path><path fill="rgb(255,255,255)" stroke="none" paint-order="stroke fill markers" d=" M 200 200 L 0 71.42857142857144 L 18.172541980602062 18.172541980602062 Z" fill-opacity="1"></path><path fill="rgb(255,255,255)" stroke="none" paint-order="stroke fill markers" d=" M 200 200 L 400 71.42857142857144 L 381.8274580193979 18.172541980602062 Z" fill-opacity="1"></path><path fill="rgb(255,255,255)" stroke="none" paint-order="stroke fill markers" d=" M 57.14285714285714 200 C 57.14285714285714 121.1021786 121.1021786 57.14285714285714 200 57.14285714285714 C 278.8978214 57.14285714285714 342.8571428571429 121.1021786 342.8571428571429 200 C 342.8571428571429 278.8978214 278.8978214 342.8571428571429 200 342.8571428571429 C 121.1021786 342.8571428571429 57.14285714285714 278.8978214 57.14285714285714 200" fill-opacity="1"></path><path fill="rgb(0,0,0)" stroke="none" paint-order="stroke fill markers" d=" M 114.28571428571429 85.71428571428572 L 142.85714285714286 62.85714285714287 L 142.85714285714286 100 Z" fill-opacity="1"></path><path fill="rgb(0,0,0)" stroke="none" paint-order="stroke fill markers" d=" M 285.7142857142857 85.71428571428572 L 257.1428571428571 62.85714285714287 L 257.1428571428571 100 Z" fill-opacity="1"></path><path fill="rgb(0,0,0)" stroke="none" paint-order="stroke fill markers" d=" M 85.71428571428571 200 C 85.71428571428571 136.88174288 136.88174288 85.71428571428571 200 85.71428571428571 C 263.11825712 85.71428571428571 314.2857142857143 136.88174288 314.2857142857143 200 C 314.2857142857143 263.11825712 263.11825712 314.2857142857143 200 314.2857142857143 C 136.88174288 314.2857142857143 85.71428571428571 263.11825712 85.71428571428571 200" fill-opacity="1"></path><path fill="rgb(255,255,255)" stroke="none" paint-order="stroke fill markers" d=" M 114.28571428571428 200 C 114.28571428571428 152.66130716 152.66130716 114.28571428571428 200 114.28571428571428 C 247.33869284 114.28571428571428 285.7142857142857 152.66130716 285.7142857142857 200 C 285.7142857142857 247.33869284 247.33869284 285.7142857142857 200 285.7142857142857 C 152.66130716 285.7142857142857 114.28571428571428 247.33869284 114.28571428571428 200" fill-opacity="1"></path><path fill="rgb(0,0,0)" stroke="none" paint-order="stroke fill markers" d=" M 142.85714285714286 142.85714285714286 C 142.85714285714286 111.29801429714286 168.44087144 85.71428571428572 200 85.71428571428572 C 231.55912856 85.71428571428572 257.14285714285717 111.29801429714286 257.14285714285717 142.85714285714286 C 257.14285714285717 174.41627141714287 231.55912856 200 200 200 C 168.44087144 200 142.85714285714286 174.41627141714287 142.85714285714286 142.85714285714286" fill-opacity="1"></path><path fill="rgb(255,255,255)" stroke="none" paint-order="stroke fill markers" d=" M 159.14285714285714 157.14285714285714 C 159.14285714285714 133.47351072285713 178.33065358 114.28571428571428 202 114.28571428571428 C 225.66934642 114.28571428571428 244.85714285714286 133.47351072285713 244.85714285714286 157.14285714285714 C 244.85714285714286 180.81220356285715 225.66934642 200 202 200 C 178.33065358 200 159.14285714285714 180.81220356285715 159.14285714285714 157.14285714285714" fill-opacity="1"></path><path fill="rgb(0,0,0)" stroke="none" paint-order="stroke fill markers" d=" M 142.85714285714286 257.14285714285717 C 142.85714285714286 225.58372858285716 168.44087144 200.00000000000003 200 200.00000000000003 C 231.55912856 200.00000000000003 257.14285714285717 225.58372858285716 257.14285714285717 257.14285714285717 C 257.14285714285717 288.70198570285714 231.55912856 314.28571428571433 200 314.28571428571433 C 168.44087144 314.28571428571433 142.85714285714286 288.70198570285714 142.85714285714286 257.14285714285717" fill-opacity="1"></path><path fill="rgb(255,255,255)" stroke="none" paint-order="stroke fill markers" d=" M 155.14285714285714 242.85714285714286 C 155.14285714285714 219.18779643714285 174.33065358 200 198 200 C 221.66934642 200 240.85714285714286 219.18779643714285 240.85714285714286 242.85714285714286 C 240.85714285714286 266.52648927714284 221.66934642 285.7142857142857 198 285.7142857142857 C 174.33065358 285.7142857142857 155.14285714285714 266.52648927714284 155.14285714285714 242.85714285714286" fill-opacity="1"></path><path fill="rgb(255,255,255)" stroke="none" paint-order="stroke fill markers" d=" M 200 114.28571428571428 L 114.28571428571428 114.28571428571428 L 114.28571428571428 200 L 200 200 L 200 114.28571428571428 Z" fill-opacity="1"></path><path fill="rgb(255,255,255)" stroke="none" paint-order="stroke fill markers" d=" M 200 200 L 285.7142857142857 200 L 285.7142857142857 285.7142857142857 L 200 285.7142857142857 L 200 200 Z" fill-opacity="1"></path><path fill="none" stroke="rgb(0,0,0)" paint-order="fill stroke markers" d=" M 100 200 C 100 144.77152502 144.77152502 100 200 100 C 255.22847498 100 300 144.77152502 300 200 C 300 255.22847498 255.22847498 300 200 300 C 144.77152502 300 100 255.22847498 100 200" stroke-opacity="1" stroke-linecap="round" stroke-miterlimit="10" stroke-width="28.571428571428573" stroke-dasharray=""></path><path fill="rgb(255,255,255)" stroke="none" paint-order="stroke fill markers" d=" M 285.7142857142857 200 C 285.7142857142857 267.06314214285715 247.33868857142858 321.42857142857144 200 321.42857142857144 L 200 200 Z" fill-opacity="1"></path><path fill="rgb(255,255,255)" stroke="none" paint-order="stroke fill markers" d=" M 200 114.28571428571428 L 177.14285714285714 314.2857142857143 L 222.85714285714286 314.2857142857143 Z" fill-opacity="1"></path><path fill="rgb(0,0,0)" stroke="none" paint-order="stroke fill markers" d=" M 200 157.14285714285714 L 182.85714285714286 346.8571428571429 L 217.14285714285714 346.8571428571429 Z" fill-opacity="1"></path></g></svg>